<?xml version="1.0" standalone="no"?><svg xmlns:xlink="http://www.w3.org/1999/xlink" xmlns="http://www.w3.org/2000/svg" viewBox="0 0 1000 636.3636363636364" preserveAspectRatio="xMaxYMax slice"><g transform="scale(1.1961722488038278)"><rect x="0" y="0" width="836" height="532" fill="#ffffff"/><rect x="76" y="0" width="76" height="76" fill="#ffffff"/><rect x="76" y="0" width="38" height="38" fill="#7b91ee"/><rect x="76" y="0" width="38" height="38" fill="#ffa8bc"/><rect x="114" y="38" width="38" height="38" fill="#889cf0"/><rect x="114" y="38" width="38" height="38" fill="#ff7193"/><rect x="380" y="0" width="76" height="76" fill="#ffffff"/><rect x="418" y="0" width="38" height="38" fill="#3e5fe6"/><path d="M 418 38 A 38 38 0 0 1  456 0 L 456 38" fill="#2348e2"/><rect x="380" y="38" width="38" height="38" fill="#5c78ea"/><rect x="380" y="38" width="38" height="38" fill="#e3e8fb"/><rect x="418" y="38" width="38" height="38" fill="#183fe1"/><path d="M 418 38 A 38 38 0 0 1 456 76 L 418 76" fill="#fffcfd"/><rect x="456" y="0" width="76" height="76" fill="#ffffff"/><rect x="456" y="0" width="38" height="38" fill="#d1d9f9"/><path d="M 456 38 A 38 38 0 0 0 494 0 L 456 0" fill="#6d86ec"/><rect x="494" y="0" width="38" height="38" fill="#4161e6"/><rect x="494" y="0" width="38" height="38" fill="#b1bef5"/><rect x="456" y="38" width="38" height="38" fill="#607bea"/><rect x="456" y="38" width="38" height="38" fill="#ff88a4"/><rect x="494" y="38" width="38" height="38" fill="#4968e7"/><path d="M 494 38 A 38 38 0 0 1 532 76 L 494 76" fill="#fff4f6"/><rect x="608" y="0" width="76" height="76" fill="#3356e5"/><rect x="608" y="0" width="76" height="76" fill="#ff7898"/><rect x="684" y="0" width="76" height="76" fill="#ffffff"/><rect x="684" y="0" width="38" height="38" fill="#e5e9fc"/><rect x="684" y="0" width="38" height="38" fill="#2045e2"/><rect x="722" y="0" width="38" height="38" fill="#4c6ae8"/><path d="M 722 0 A 38 38 0 0 0 760 38 L 760 0" fill="#d5dcf9"/><rect x="684" y="38" width="38" height="38" fill="#6a83ec"/><path d="M 684 76 A 38 38 0 0 1  722 38 L 722 76" fill="#5875e9"/><rect x="760" y="0" width="76" height="76" fill="#ffc8d5"/><path d="M 760 0 A 76 76 0 0 1  836 76 L 760 0 A 76 76 0 0 0 836 76" fill="#ff6489"/><rect x="0" y="76" width="76" height="76" fill="#ffffff"/><rect x="0" y="76" width="38" height="38" fill="#b6c3f6"/><rect x="0" y="76" width="38" height="38" fill="#1b42e1"/><rect x="76" y="76" width="76" height="76" fill="#ff91ab"/><path d="M 76 76 A 76 76 0 0 0 152 152 L 152 76" fill="#a4b4f3"/><rect x="152" y="76" width="76" height="76" fill="#ffc9d6"/><rect x="152" y="76" width="76" height="76" fill="#c5cef7"/><rect x="456" y="76" width="76" height="76" fill="#ffffff"/><rect x="456" y="76" width="38" height="38" fill="#ff6187"/><path d="M 456 76 A 38 38 0 0 0 494 114 L 494 76" fill="#b0bdf5"/><rect x="494" y="76" width="38" height="38" fill="#e6eafc"/><rect x="494" y="76" width="38" height="38" fill="#ff668a"/><rect x="456" y="114" width="38" height="38" fill="#b7c3f6"/><rect x="456" y="114" width="38" height="38" fill="#9daef2"/><rect x="494" y="114" width="38" height="38" fill="#ffa4ba"/><path d="M 494 152 A 38 38 0 0 0 532 114 L 494 114" fill="#ff5a81"/><rect x="608" y="76" width="76" height="76" fill="#ffb5c7"/><path d="M 608 76 A 76 76 0 0 1 684 152 L 608 152" fill="#ff4773"/><rect x="760" y="76" width="76" height="76" fill="#ffffff"/><rect x="798" y="114" width="38" height="38" fill="#2146e2"/><path d="M 798 152 A 38 38 0 0 1  836 114 L 836 152" fill="#4a69e8"/><rect x="0" y="152" width="76" height="76" fill="#ffffff"/><rect x="38" y="152" width="38" height="38" fill="#ffdee6"/><rect x="38" y="152" width="38" height="38" fill="#ffc9d6"/><rect x="0" y="190" width="38" height="38" fill="#1c42e2"/><rect x="0" y="190" width="38" height="38" fill="#ffe3e9"/><rect x="304" y="152" width="76" height="76" fill="#ffffff"/><rect x="342" y="152" width="38" height="38" fill="#f8f9fe"/><rect x="342" y="152" width="38" height="38" fill="#ffb1c4"/><rect x="342" y="190" width="38" height="38" fill="#eef1fd"/><rect x="342" y="190" width="38" height="38" fill="#758ced"/><rect x="456" y="152" width="76" height="76" fill="#ffffff"/><rect x="456" y="190" width="38" height="38" fill="#ff5980"/><rect x="456" y="190" width="38" height="38" fill="#ffb8c9"/><rect x="494" y="190" width="38" height="38" fill="#5370e9"/><rect x="494" y="190" width="38" height="38" fill="#aab8f4"/><rect x="608" y="152" width="76" height="76" fill="#ffffff"/><rect x="608" y="152" width="38" height="38" fill="#b8c4f6"/><rect x="608" y="152" width="38" height="38" fill="#bcc7f6"/><rect x="646" y="190" width="38" height="38" fill="#5d78ea"/><path d="M 646 228 A 38 38 0 0 1  684 190 L 646 228 A 38 38 0 0 0 684 190" fill="#ff89a5"/><rect x="760" y="152" width="76" height="76" fill="#f5f6fe"/><rect x="760" y="152" width="76" height="76" fill="#ffb0c3"/><rect x="0" y="228" width="76" height="76" fill="#ffffff"/><rect x="0" y="228" width="38" height="38" fill="#ffa3b9"/><rect x="0" y="228" width="38" height="38" fill="#fafbfe"/><rect x="38" y="228" width="38" height="38" fill="#ff9ab2"/><rect x="38" y="228" width="38" height="38" fill="#3053e4"/><rect x="0" y="266" width="38" height="38" fill="#ffa7bc"/><path d="M 0 304 A 38 38 0 0 1  38 266 L 38 304" fill="#2b4fe3"/><rect x="38" y="266" width="38" height="38" fill="#f9fafe"/><path d="M 38 304 A 38 38 0 0 0 76 266 L 38 266" fill="#fffefe"/><rect x="228" y="228" width="76" height="76" fill="#ff6f91"/><rect x="228" y="228" width="76" height="76" fill="#3658e5"/><rect x="380" y="228" width="76" height="76" fill="#ffffff"/><rect x="418" y="228" width="38" height="38" fill="#ff98b0"/><path d="M 418 266 A 38 38 0 0 1  456 228 L 418 266 A 38 38 0 0 0 456 228" fill="#ffdee6"/><rect x="380" y="266" width="38" height="38" fill="#748bed"/><rect x="380" y="266" width="38" height="38" fill="#3355e4"/><rect x="456" y="228" width="76" height="76" fill="#ffd7e0"/><rect x="456" y="228" width="76" height="76" fill="#ffb2c4"/><rect x="532" y="228" width="76" height="76" fill="#ffffff"/><rect x="532" y="228" width="38" height="38" fill="#1c42e1"/><rect x="532" y="228" width="38" height="38" fill="#ffbfce"/><rect x="532" y="266" width="38" height="38" fill="#ffcad7"/><rect x="532" y="266" width="38" height="38" fill="#c8d1f8"/><rect x="684" y="228" width="76" height="76" fill="#ff3d6b"/><rect x="684" y="228" width="76" height="76" fill="#ffbecd"/><rect x="0" y="304" width="76" height="76" fill="#ffffff"/><rect x="38" y="304" width="38" height="38" fill="#ff4874"/><rect x="38" y="304" width="38" height="38" fill="#ffb1c3"/><rect x="76" y="304" width="76" height="76" fill="#ffffff"/><rect x="114" y="304" width="38" height="38" fill="#4262e6"/><rect x="114" y="304" width="38" height="38" fill="#5572e9"/><rect x="76" y="342" width="38" height="38" fill="#2348e2"/><rect x="76" y="342" width="38" height="38" fill="#ff547d"/><rect x="114" y="342" width="38" height="38" fill="#8b9ef0"/><path d="M 114 380 A 38 38 0 0 1  152 342 L 152 380" fill="#ff3868"/><rect x="228" y="304" width="76" height="76" fill="#ffffff"/><rect x="228" y="304" width="38" height="38" fill="#c5cff8"/><rect x="228" y="304" width="38" height="38" fill="#dae0fa"/><rect x="266" y="342" width="38" height="38" fill="#92a5f1"/><rect x="266" y="342" width="38" height="38" fill="#f4f6fe"/><rect x="304" y="304" width="76" height="76" fill="#ffffff"/><rect x="304" y="304" width="38" height="38" fill="#ff5d84"/><rect x="304" y="304" width="38" height="38" fill="#ff6c8f"/><rect x="342" y="304" width="38" height="38" fill="#ff4370"/><rect x="342" y="304" width="38" height="38" fill="#3153e4"/><rect x="304" y="342" width="38" height="38" fill="#ff6b8e"/><path d="M 304 380 A 38 38 0 0 1  342 342 L 342 380" fill="#ffb0c3"/><rect x="342" y="342" width="38" height="38" fill="#ffe4ea"/><rect x="342" y="342" width="38" height="38" fill="#91a3f1"/><rect x="380" y="304" width="76" height="76" fill="#ff4974"/><path d="M 380 304 A 76 76 0 0 1  456 380 L 380 304 A 76 76 0 0 0 456 380" fill="#ff9eb5"/><rect x="532" y="304" width="76" height="76" fill="#ffc1d0"/><rect x="532" y="304" width="76" height="76" fill="#ffdde5"/><rect x="608" y="304" width="76" height="76" fill="#ffffff"/><rect x="608" y="342" width="38" height="38" fill="#1940e1"/><rect x="608" y="342" width="38" height="38" fill="#ff7798"/><rect x="646" y="342" width="38" height="38" fill="#ffb4c6"/><rect x="646" y="342" width="38" height="38" fill="#ff668a"/><rect x="684" y="304" width="76" height="76" fill="#ffffff"/><rect x="684" y="304" width="38" height="38" fill="#506ee8"/><path d="M 684 342 A 38 38 0 0 1  722 304 L 722 342" fill="#b8c4f6"/><rect x="722" y="304" width="38" height="38" fill="#ff7293"/><rect x="722" y="304" width="38" height="38" fill="#6b84ec"/><rect x="684" y="342" width="38" height="38" fill="#ff4873"/><rect x="684" y="342" width="38" height="38" fill="#ff89a5"/><rect x="722" y="342" width="38" height="38" fill="#5874e9"/><path d="M 722 342 A 38 38 0 0 1  760 380 L 722 342 A 38 38 0 0 0 760 380" fill="#ff88a4"/><rect x="760" y="304" width="76" height="76" fill="#ffffff"/><rect x="760" y="304" width="38" height="38" fill="#3d5ee6"/><rect x="760" y="304" width="38" height="38" fill="#eaedfc"/><rect x="798" y="304" width="38" height="38" fill="#7990ee"/><path d="M 798 304 A 38 38 0 0 1 836 342 L 798 342" fill="#ffbfce"/><rect x="760" y="342" width="38" height="38" fill="#afbcf5"/><path d="M 760 380 A 38 38 0 0 1  798 342 L 798 380" fill="#ffdce4"/><rect x="0" y="380" width="76" height="76" fill="#ff4773"/><rect x="0" y="380" width="76" height="76" fill="#1a41e1"/><rect x="76" y="380" width="76" height="76" fill="#ffffff"/><rect x="76" y="380" width="38" height="38" fill="#4d6be8"/><path d="M 76 418 A 38 38 0 0 1  114 380 L 114 418" fill="#4766e7"/><rect x="114" y="380" width="38" height="38" fill="#ffc8d5"/><path d="M 114 418 A 38 38 0 0 0 152 380 L 114 380" fill="#fffdfd"/><rect x="76" y="418" width="38" height="38" fill="#385ae5"/><rect x="76" y="418" width="38" height="38" fill="#3456e5"/><rect x="152" y="380" width="76" height="76" fill="#ff3b69"/><rect x="152" y="380" width="76" height="76" fill="#ff557d"/><rect x="304" y="380" width="76" height="76" fill="#ffffff"/><rect x="304" y="380" width="38" height="38" fill="#ffe9ee"/><rect x="304" y="380" width="38" height="38" fill="#ff96af"/><rect x="304" y="418" width="38" height="38" fill="#ff4f79"/><rect x="304" y="418" width="38" height="38" fill="#ff4b76"/><rect x="456" y="380" width="76" height="76" fill="#ff86a3"/><path d="M 456 456 A 76 76 0 0 1  532 380 L 456 456 A 76 76 0 0 0 532 380" fill="#ff86a3"/><rect x="532" y="380" width="76" height="76" fill="#ffffff"/><rect x="532" y="380" width="38" height="38" fill="#fff4f7"/><path d="M 532 418 A 38 38 0 0 1  570 380 L 532 418 A 38 38 0 0 0 570 380" fill="#ffe2e9"/><rect x="570" y="380" width="38" height="38" fill="#c3cdf7"/><rect x="570" y="380" width="38" height="38" fill="#ff94ad"/><rect x="570" y="418" width="38" height="38" fill="#ff3767"/><path d="M 570 418 A 38 38 0 0 1  608 456 L 570 418 A 38 38 0 0 0 608 456" fill="#ff5d83"/><rect x="760" y="380" width="76" height="76" fill="#526fe9"/><rect x="760" y="380" width="76" height="76" fill="#ffbbcb"/><rect x="0" y="456" width="76" height="76" fill="#ffa2b8"/><path d="M 0 532 A 76 76 0 0 1  76 456 L 0 532 A 76 76 0 0 0 76 456" fill="#3557e5"/><rect x="76" y="456" width="76" height="76" fill="#ffffff"/><rect x="114" y="456" width="38" height="38" fill="#ff5a81"/><rect x="114" y="456" width="38" height="38" fill="#7d93ee"/><rect x="76" y="494" width="38" height="38" fill="#ff7f9d"/><rect x="76" y="494" width="38" height="38" fill="#ff507a"/><rect x="152" y="456" width="76" height="76" fill="#ffecf1"/><rect x="152" y="456" width="76" height="76" fill="#ff84a2"/><rect x="228" y="456" width="76" height="76" fill="#4867e7"/><rect x="228" y="456" width="76" height="76" fill="#ffb7c8"/><rect x="304" y="456" width="76" height="76" fill="#ffffff"/><rect x="342" y="456" width="38" height="38" fill="#ffd0db"/><rect x="342" y="456" width="38" height="38" fill="#a2b2f3"/><rect x="304" y="494" width="38" height="38" fill="#637deb"/><path d="M 304 494 A 38 38 0 0 0 342 532 L 342 494" fill="#6a83ec"/><rect x="342" y="494" width="38" height="38" fill="#5c78ea"/><path d="M 342 532 A 38 38 0 0 0 380 494 L 342 494" fill="#516ee8"/><rect x="456" y="456" width="76" height="76" fill="#8a9ef0"/><path d="M 456 532 A 76 76 0 0 0 532 456 L 456 456" fill="#c6d0f8"/><rect x="760" y="456" width="76" height="76" fill="#f1f3fd"/><path d="M 760 456 A 76 76 0 0 1 836 532 L 760 532" fill="#f0f2fd"/></g></svg>