<?xml version="1.0" standalone="no"?><svg xmlns:xlink="http://www.w3.org/1999/xlink" xmlns="http://www.w3.org/2000/svg" viewBox="0 0 1000 636.3592835088727" preserveAspectRatio="xMaxYMax slice"><g transform="scale(1.5445613677399823)"><rect x="0" y="0" width="706.2857142857142" height="412" fill="#ffffff"/><path d="M 5.89 5.89 A 47.09 47.09 0 0 0 52.980000000000004 52.980000000000004 L 52.980000000000004 5.89" fill="#ffecf0"/><rect x="300.1714285714286" y="5.885714285714286" width="47.08571428571428" height="47.08571428571428" fill="#ffffff"/><path d="M 300.17 29.43 A 23.54 23.54 0 0 1 323.71000000000004 5.89 L 323.71000000000004 11.774999999999999 A 17.655 17.655 0 0 0 306.055 29.43" fill="#ff547d"/><path d="M 323.71 52.97 A 23.54 23.54 0 0 0 347.25 29.43 L 341.365 29.43 A 17.655 17.655 0 0 1 323.71 47.085" fill="#3e5ee6"/><rect x="594.4571428571428" y="5.885714285714286" width="47.08571428571428" height="47.08571428571428" fill="#ffffff"/><path d="M 618 5.89 A 23.54 23.54 0 0 1 641.54 29.43 L 618 29.43" fill="#ffeaef"/><path d="M 618 52.97 A 23.54 23.54 0 0 0 641.54 29.43 L 618 29.43" fill="#ffe3e9"/><rect x="64.74285714285713" y="64.74285714285713" width="47.08571428571428" height="47.08571428571428" fill="#ffffff"/><rect x="300.1714285714286" y="64.74285714285713" width="47.08571428571428" height="47.08571428571428" fill="#ffffff"/><polygon points="323.71,88.29 347.25,88.29 323.71,111.83000000000001" fill="#a5b4f3"/><path d="M 359.03 64.74 A 47.09 47.09 0 0 0 406.12 111.83 L 406.12 64.74" fill="#1c42e1"/><rect x="417.8857142857143" y="64.74285714285713" width="47.08571428571428" height="47.08571428571428" fill="#ffffff"/><rect x="441.43" y="64.74" width="23.54" height="23.54" fill="#f7f9fe"/><rect x="653.3142857142857" y="64.74285714285713" width="47.08571428571428" height="47.08571428571428" fill="#ffffff"/><path d="M 676.86 111.83000000000001 A 23.54 23.54 0 0 0 700.4 88.29 L 694.515 88.29 A 17.655 17.655 0 0 1 676.86 105.94500000000001" fill="#879bef"/><rect x="182.45714285714286" y="123.6" width="47.08571428571428" height="47.08571428571428" fill="#ffffff"/><path d="M 206 147.14 A 23.54 23.54 0 0 0 229.54 123.6 L 206 123.6" fill="#aab8f4"/><path d="M 182.46 170.67999999999998 A 23.54 23.54 0 0 1  206 147.14 L 206 170.67999999999998" fill="#4a69e7"/><rect x="241.31" y="123.6" width="47.09" height="47.09" fill="#ffc0cf"/><rect x="476.74285714285713" y="123.6" width="47.08571428571428" height="47.08571428571428" fill="#ffffff"/><path d="M 476.74 123.6 A 23.54 23.54 0 0 1 500.28000000000003 147.14 L 476.74 147.14" fill="#ff6186"/><path d="M 476.74 170.67999999999998 A 23.54 23.54 0 0 0 500.28000000000003 147.14 L 476.74 147.14" fill="#8ea1f0"/><path d="M 500.29 147.14 A 23.54 23.54 0 0 0 523.83 170.67999999999998 L 523.83 147.14" fill="#ff92ac"/><polygon points="288.4,182.46 288.4,229.55 241.31,229.55" fill="#7088ec"/><rect x="359.0285714285714" y="182.45714285714286" width="47.08571428571428" height="47.08571428571428" fill="#ffffff"/><rect x="417.8857142857143" y="182.45714285714286" width="47.08571428571428" height="47.08571428571428" fill="#ffffff"/><rect x="441.43" y="182.46" width="23.54" height="23.54" fill="#ffd9e2"/><rect x="653.31" y="182.46" width="47.09" height="47.09" fill="#788fed"/><rect x="241.31" y="241.31" width="47.09" height="47.09" fill="#ff4a75"/><rect x="300.17" y="241.31" width="47.09" height="47.09" fill="#cad3f8"/><path d="M 359.03 288.4 A 47.09 47.09 0 0 1  406.12 241.31 L 406.12 288.4" fill="#b3c0f5"/><path d="M 594.46 241.31 A 47.09 47.09 0 0 0 641.5500000000001 288.4 L 641.5500000000001 241.31" fill="#3154e4"/><polygon points="64.74,300.17 111.83,300.17 111.83,347.26" fill="#ffd3de"/><path d="M 182.46 347.26 A 47.09 47.09 0 0 1  229.55 300.17 L 229.55 347.26" fill="#dee4fb"/><rect x="241.3142857142857" y="300.1714285714286" width="47.08571428571428" height="47.08571428571428" fill="#ffffff"/><path d="M 241.31 323.71 A 23.54 23.54 0 0 0 264.85 347.25 L 264.85 341.365 A 17.655 17.655 0 0 1 247.195 323.71" fill="#a5b4f3"/><rect x="359.0285714285714" y="300.1714285714286" width="47.08571428571428" height="47.08571428571428" fill="#ffffff"/><polygon points="535.6,300.17 582.69,300.17 535.6,347.26" fill="#ff6c8f"/><rect x="241.31" y="359.03" width="47.09" height="47.09" fill="#aab8f4"/><path d="M 535.6 359.03 A 47.09 47.09 0 0 1  582.69 406.12 L 535.6 359.03 A 47.09 47.09 0 0 0 582.69 406.12" fill="#ff4f79"/></g></svg>